<?xml version="1.0" encoding="utf-8"?>
<!-- Generator: Adobe Illustrator 27.2.0, SVG Export Plug-In . SVG Version: 6.00 Build 0)  -->
<svg version="1.1" id="Calque_1" xmlns="http://www.w3.org/2000/svg" xmlns:xlink="http://www.w3.org/1999/xlink" x="0px" y="0px"
	 viewBox="0 0 325.98 129.19" style="enable-background:new 0 0 325.98 129.19;" xml:space="preserve">
<style type="text/css">
	.st0{fill:#1D1718;}
</style>
<g>
	<path class="st0" d="M0.68,50.41V0.72h6.21v49.69H0.68z"/>
	<path class="st0" d="M37.87,50.99c-1.78,0-3.73-0.05-5.85-0.14c-2.12-0.1-4.18-0.22-6.18-0.36c-2-0.15-3.82-0.31-5.45-0.5v-5.28
		c1.73,0.15,3.55,0.29,5.45,0.44c1.9,0.14,3.76,0.26,5.56,0.36c1.81,0.1,3.34,0.15,4.59,0.15c2.55,0,4.6-0.11,6.14-0.33
		c1.54-0.22,2.84-0.64,3.9-1.27c0.72-0.43,1.25-1.01,1.59-1.73c0.34-0.72,0.54-1.56,0.61-2.53c0.07-0.96,0.11-2,0.11-3.11
		c0-1.63-0.05-2.96-0.14-3.97c-0.1-1.01-0.35-1.79-0.76-2.35c-0.41-0.55-1.07-0.96-1.98-1.23c-0.92-0.26-2.15-0.47-3.69-0.62
		l-12.35-1.37c-2.31-0.29-4.17-0.78-5.56-1.48c-1.4-0.7-2.44-1.59-3.14-2.67c-0.7-1.08-1.17-2.38-1.41-3.9
		c-0.24-1.52-0.36-3.22-0.36-5.09c0-3.03,0.4-5.46,1.19-7.29c0.79-1.83,1.96-3.23,3.51-4.19c1.54-0.97,3.41-1.6,5.6-1.92
		c2.19-0.31,4.7-0.47,7.55-0.47c1.83,0,3.71,0.05,5.63,0.15c1.93,0.1,3.75,0.23,5.45,0.4c1.71,0.17,3.12,0.37,4.23,0.61v5.13
		c-1.25-0.19-2.7-0.36-4.33-0.51c-1.64-0.15-3.31-0.25-5.02-0.33c-1.71-0.07-3.33-0.11-4.87-0.11c-2.65,0-4.79,0.12-6.43,0.36
		c-1.64,0.24-2.94,0.67-3.9,1.3c-1.06,0.63-1.72,1.51-1.98,2.64c-0.26,1.13-0.4,2.49-0.4,4.08c0,1.88,0.13,3.34,0.4,4.37
		c0.26,1.03,0.84,1.76,1.73,2.17c0.89,0.41,2.23,0.71,4.01,0.9l12.06,1.37c1.73,0.14,3.26,0.38,4.59,0.69
		c1.33,0.31,2.46,0.83,3.43,1.55c0.96,0.72,1.68,1.76,2.17,3.11c0.29,0.67,0.51,1.42,0.65,2.24c0.14,0.82,0.25,1.72,0.32,2.71
		c0.07,0.98,0.11,2.08,0.11,3.28c0,2.75-0.26,5.02-0.8,6.83c-0.53,1.81-1.27,3.24-2.23,4.29c-0.97,1.06-2.14,1.85-3.54,2.38
		c-1.4,0.53-2.95,0.87-4.66,1.01C41.69,50.92,39.85,50.99,37.87,50.99z"/>
	<path class="st0" d="M66.69,50.41V0.72h32.29v5.34H72.9v16.54h22.68v5.42H72.9v17.04h26.08v5.34H66.69z"/>
	<path class="st0" d="M105.04,50.41l18.78-49.69h7.8l18.71,49.69h-6.43l-5.13-13.58h-22.32l-5.13,13.58H105.04z M118.33,31.42h18.56
		l-9.1-24.34h-0.36L118.33,31.42z"/>
	<path class="st0" d="M158.2,50.41v-5.13c0-2.7,0.05-4.9,0.14-6.61c0.1-1.71,0.39-3.11,0.87-4.19c0.48-1.08,1.29-2.02,2.42-2.82
		c1.13-0.79,2.73-1.65,4.8-2.56l14.88-6.5c1.83-0.82,3.21-1.65,4.15-2.49c0.94-0.84,1.59-1.85,1.95-3.04
		c0.36-1.18,0.54-2.66,0.54-4.44c0-2.84-0.38-4.97-1.15-6.39c-0.77-1.42-2.14-2.38-4.12-2.89c-1.98-0.5-4.79-0.76-8.45-0.76
		c-1.25,0-2.76,0.04-4.51,0.11c-1.76,0.07-3.55,0.17-5.38,0.29c-1.83,0.12-3.54,0.25-5.13,0.39V1.09c1.3-0.19,2.83-0.36,4.59-0.51
		c1.75-0.15,3.6-0.25,5.52-0.33c1.93-0.07,3.76-0.11,5.49-0.11c2.22,0,4.27,0.1,6.17,0.29c1.91,0.19,3.58,0.66,5.02,1.41
		c1.44,0.75,2.56,1.92,3.36,3.53c0.8,1.61,1.19,3.82,1.19,6.61c0,2.7-0.28,4.84-0.83,6.43c-0.55,1.59-1.49,2.89-2.82,3.9
		c-1.33,1.01-3.14,2.02-5.45,3.03l-16.83,7.37c-1.35,0.58-2.29,1.3-2.82,2.17c-0.53,0.87-0.83,1.96-0.9,3.29
		c-0.07,1.32-0.11,3-0.11,5.02v4.77h29.76v2.45H158.2z"/>
	<path class="st0" d="M250.93,50.41v-5.13c0-2.7,0.05-4.9,0.14-6.61c0.1-1.71,0.38-3.11,0.87-4.19c0.48-1.08,1.29-2.02,2.42-2.82
		c1.13-0.79,2.73-1.65,4.8-2.56l14.88-6.5c1.83-0.82,3.21-1.65,4.16-2.49c0.94-0.84,1.59-1.85,1.95-3.04
		c0.36-1.18,0.54-2.66,0.54-4.44c0-2.84-0.39-4.97-1.16-6.39c-0.77-1.42-2.14-2.38-4.12-2.89c-1.98-0.5-4.79-0.76-8.45-0.76
		c-1.26,0-2.76,0.04-4.52,0.11c-1.76,0.07-3.55,0.17-5.38,0.29c-1.83,0.12-3.54,0.25-5.13,0.39V1.09c1.3-0.19,2.83-0.36,4.59-0.51
		c1.76-0.15,3.6-0.25,5.53-0.33c1.92-0.07,3.75-0.11,5.49-0.11c2.21,0,4.27,0.1,6.18,0.29c1.9,0.19,3.57,0.66,5.02,1.41
		c1.44,0.75,2.56,1.92,3.36,3.53c0.79,1.61,1.19,3.82,1.19,6.61c0,2.7-0.28,4.84-0.83,6.43c-0.55,1.59-1.49,2.89-2.82,3.9
		c-1.33,1.01-3.14,2.02-5.45,3.03l-16.83,7.37c-1.35,0.58-2.29,1.3-2.82,2.17c-0.53,0.87-0.83,1.96-0.9,3.29
		c-0.07,1.32-0.11,3-0.11,5.02v4.77h29.75v2.45H250.93z"/>
	<path class="st0" d="M307.78,50.99c-1.4,0-2.93-0.05-4.62-0.14c-1.69-0.1-3.35-0.22-4.98-0.36c-1.64-0.15-3.11-0.31-4.41-0.5v-2.31
		c1.63,0.15,3.32,0.29,5.06,0.43c1.73,0.14,3.38,0.25,4.94,0.32c1.57,0.07,2.9,0.11,4.01,0.11c3.23,0,6-0.25,8.34-0.76
		c2.34-0.5,4.13-1.53,5.38-3.07c1.25-1.54,1.87-3.9,1.87-7.08c0-2.65-0.37-4.79-1.11-6.43c-0.75-1.64-1.93-2.84-3.54-3.61
		c-1.61-0.77-3.74-1.16-6.39-1.16h-9.96v-2.46h9.96c1.64,0,3.25-0.29,4.84-0.86c1.59-0.58,2.93-1.63,4.01-3.14
		c1.09-1.51,1.63-3.72,1.63-6.6c0-3.13-0.57-5.47-1.7-7.01c-1.13-1.54-2.85-2.55-5.16-3.03c-2.31-0.48-5.27-0.72-8.88-0.72
		c-1.21,0-2.57,0.04-4.08,0.11c-1.51,0.07-3.04,0.17-4.59,0.29c-1.54,0.12-2.99,0.28-4.33,0.47V1.16c1.3-0.19,2.76-0.37,4.37-0.51
		c1.61-0.15,3.25-0.27,4.91-0.36c1.66-0.09,3.16-0.15,4.51-0.15c3.37,0,6.19,0.24,8.45,0.73c2.26,0.48,4.06,1.22,5.38,2.24
		c1.33,1.01,2.28,2.35,2.85,4.01c0.58,1.66,0.87,3.7,0.87,6.11c0,3.61-0.75,6.32-2.24,8.12c-1.5,1.81-3.57,2.97-6.21,3.5v0.29
		c1.83,0.29,3.42,0.86,4.77,1.7c1.35,0.84,2.39,2.1,3.14,3.76c0.75,1.66,1.12,3.84,1.12,6.54c0,2.21-0.23,4.19-0.69,5.92
		c-0.45,1.74-1.32,3.19-2.6,4.37c-1.28,1.18-3.12,2.07-5.53,2.67C314.75,50.69,311.63,50.99,307.78,50.99z"/>
	<path class="st0" d="M16.52,101.56c-1.53,0-3.22-0.04-5.06-0.12c-1.84-0.08-3.64-0.2-5.4-0.34c-1.76-0.15-3.36-0.3-4.81-0.47v-5.77
		c1.49,0.12,3.05,0.25,4.69,0.37c1.63,0.12,3.2,0.22,4.68,0.28c1.49,0.06,2.77,0.09,3.85,0.09c2.19,0,3.91-0.1,5.15-0.31
		c1.24-0.21,2.23-0.54,2.98-0.99c0.5-0.33,0.86-0.75,1.08-1.24c0.23-0.5,0.38-1.09,0.44-1.77c0.06-0.69,0.09-1.44,0.09-2.27
		c0-1.12-0.04-2.05-0.12-2.79c-0.08-0.74-0.27-1.32-0.56-1.74c-0.29-0.41-0.74-0.71-1.37-0.9c-0.62-0.18-1.43-0.34-2.42-0.47
		L9.56,81.95c-1.98-0.25-3.61-0.67-4.87-1.28c-1.26-0.6-2.23-1.39-2.92-2.39c-0.68-0.99-1.15-2.17-1.4-3.54
		C0.12,73.38,0,71.87,0,70.21c0-2.77,0.37-4.97,1.12-6.58c0.75-1.61,1.81-2.85,3.2-3.69c1.39-0.85,3.03-1.41,4.94-1.68
		c1.9-0.27,4.01-0.4,6.33-0.4c1.61,0,3.27,0.05,4.97,0.15c1.7,0.1,3.3,0.23,4.81,0.37c1.51,0.15,2.76,0.34,3.75,0.59v5.65
		c-1.03-0.17-2.25-0.31-3.63-0.43c-1.39-0.12-2.83-0.22-4.31-0.28c-1.49-0.06-2.88-0.09-4.16-0.09c-2.15,0-3.88,0.09-5.18,0.28
		c-1.31,0.19-2.31,0.49-3.01,0.9c-0.83,0.45-1.33,1.08-1.49,1.89C7.16,67.7,7.08,68.7,7.08,69.9c0,1.41,0.09,2.49,0.28,3.26
		c0.19,0.77,0.62,1.29,1.3,1.58c0.68,0.29,1.72,0.52,3.13,0.68l10.18,1.18c1.28,0.12,2.44,0.32,3.48,0.59
		c1.04,0.27,1.96,0.71,2.76,1.33c0.81,0.62,1.44,1.51,1.9,2.67c0.29,0.58,0.51,1.24,0.65,1.98c0.15,0.75,0.27,1.56,0.37,2.46
		c0.1,0.89,0.16,1.89,0.16,3.01c0,2.36-0.24,4.33-0.71,5.9c-0.48,1.57-1.14,2.82-1.99,3.75c-0.85,0.93-1.89,1.64-3.14,2.11
		c-1.24,0.47-2.61,0.79-4.1,0.93C19.87,101.49,18.25,101.56,16.52,101.56z"/>
	<path class="st0" d="M50.53,101.07V85.36L35.45,58.36h7.45l11.11,20.05h0.44l10.99-20.05h7.26L57.55,85.36v15.71H50.53z"/>
	<path class="st0" d="M78.9,101.07V58.36h9.56L101,89.4h0.31l12.54-31.04h9.56v42.71h-6.77V69.22h-0.25l-12.91,31.85h-4.97
		L85.73,69.22h-0.25v31.85H78.9z"/>
	<path class="st0" d="M134.84,101.07V58.36h20.3c2.81,0,5.07,0.43,6.76,1.27c1.7,0.85,2.94,2.07,3.73,3.66
		c0.78,1.59,1.18,3.53,1.18,5.8c0,1.91-0.26,3.54-0.78,4.9c-0.52,1.37-1.32,2.47-2.39,3.32c-1.08,0.85-2.46,1.46-4.16,1.83v0.25
		c1.99,0.37,3.55,1.02,4.69,1.92c1.14,0.91,1.93,2.07,2.39,3.48c0.46,1.41,0.68,3.06,0.68,4.96c0,1.62-0.19,3.12-0.56,4.5
		c-0.38,1.38-1,2.57-1.89,3.56c-0.89,1-2.12,1.79-3.69,2.36c-1.57,0.58-3.58,0.87-6.02,0.87H134.84z M141.85,76.49h10.86
		c1.7,0,3.05-0.21,4.07-0.63c1.01-0.41,1.77-1.06,2.26-1.95c0.5-0.89,0.75-2.04,0.75-3.45c0-1.57-0.21-2.8-0.62-3.69
		c-0.41-0.89-1.12-1.52-2.11-1.89c-0.99-0.37-2.44-0.56-4.35-0.56h-10.86V76.49z M141.85,95.17h11.11c1.9,0,3.37-0.2,4.41-0.59
		c1.04-0.39,1.77-1.06,2.2-1.99c0.44-0.93,0.65-2.18,0.65-3.75c0-1.62-0.23-2.89-0.68-3.82c-0.46-0.93-1.21-1.59-2.27-1.99
		c-1.06-0.39-2.5-0.59-4.31-0.59h-11.11V95.17z"/>
	<path class="st0" d="M176.99,101.07V58.36H184v42.71H176.99z"/>
	<path class="st0" d="M211.69,101.56c-3.39,0-6.19-0.2-8.38-0.59c-2.2-0.39-3.93-1.06-5.21-2.02c-1.28-0.95-2.21-2.26-2.79-3.91
		c-0.58-1.66-0.95-3.74-1.12-6.24c-0.17-2.5-0.25-5.53-0.25-9.09c0-3.56,0.08-6.59,0.25-9.09c0.17-2.5,0.54-4.58,1.12-6.24
		c0.58-1.66,1.51-2.96,2.79-3.91c1.28-0.95,3.02-1.62,5.21-2.02c2.19-0.39,4.99-0.59,8.38-0.59c3.4,0,6.2,0.2,8.41,0.59
		c2.21,0.4,3.96,1.07,5.24,2.02c1.28,0.95,2.23,2.26,2.83,3.91c0.6,1.66,0.98,3.74,1.15,6.24c0.17,2.5,0.25,5.54,0.25,9.09
		c0,3.56-0.08,6.59-0.25,9.09c-0.17,2.51-0.55,4.58-1.15,6.24c-0.6,1.65-1.54,2.96-2.83,3.91c-1.28,0.95-3.03,1.62-5.24,2.02
		C217.89,101.37,215.09,101.56,211.69,101.56z M211.69,95.6c2.07,0,3.78-0.06,5.12-0.19c1.34-0.12,2.4-0.43,3.17-0.93
		c0.76-0.5,1.33-1.31,1.71-2.46c0.37-1.14,0.61-2.69,0.71-4.65c0.1-1.96,0.15-4.52,0.15-7.67c0-3.14-0.05-5.7-0.15-7.66
		c-0.1-1.97-0.34-3.52-0.71-4.66c-0.37-1.14-0.94-1.95-1.71-2.45c-0.77-0.5-1.82-0.81-3.17-0.93c-1.35-0.12-3.06-0.19-5.12-0.19
		c-2.03,0-3.7,0.06-5.03,0.19c-1.33,0.12-2.38,0.43-3.17,0.93c-0.79,0.5-1.36,1.32-1.71,2.45c-0.35,1.14-0.58,2.69-0.68,4.66
		c-0.11,1.96-0.16,4.52-0.16,7.66c0,3.15,0.05,5.7,0.16,7.67c0.1,1.96,0.33,3.52,0.68,4.65c0.35,1.14,0.92,1.96,1.71,2.46
		c0.79,0.5,1.84,0.8,3.17,0.93C207.98,95.54,209.66,95.6,211.69,95.6z"/>
	<path class="st0" d="M254.09,101.56c-1.53,0-3.22-0.04-5.06-0.12c-1.84-0.08-3.64-0.2-5.4-0.34c-1.76-0.15-3.36-0.3-4.81-0.47
		v-5.77c1.49,0.12,3.05,0.25,4.69,0.37c1.63,0.12,3.2,0.22,4.69,0.28c1.49,0.06,2.77,0.09,3.85,0.09c2.19,0,3.91-0.1,5.15-0.31
		c1.24-0.21,2.24-0.54,2.98-0.99c0.5-0.33,0.86-0.75,1.09-1.24c0.23-0.5,0.37-1.09,0.43-1.77c0.07-0.69,0.1-1.44,0.1-2.27
		c0-1.12-0.04-2.05-0.12-2.79c-0.08-0.74-0.27-1.32-0.56-1.74c-0.29-0.41-0.75-0.71-1.37-0.9c-0.62-0.18-1.43-0.34-2.42-0.47
		l-10.18-1.18c-1.99-0.25-3.61-0.67-4.87-1.28c-1.26-0.6-2.24-1.39-2.92-2.39c-0.68-0.99-1.15-2.17-1.4-3.54
		c-0.25-1.36-0.37-2.87-0.37-4.53c0-2.77,0.37-4.97,1.12-6.58c0.75-1.61,1.81-2.85,3.2-3.69c1.38-0.85,3.03-1.41,4.94-1.68
		c1.9-0.27,4.01-0.4,6.33-0.4c1.61,0,3.27,0.05,4.97,0.15c1.69,0.1,3.3,0.23,4.82,0.37c1.51,0.15,2.76,0.34,3.75,0.59v5.65
		c-1.03-0.17-2.24-0.31-3.63-0.43c-1.39-0.12-2.82-0.22-4.31-0.28c-1.49-0.06-2.88-0.09-4.16-0.09c-2.15,0-3.88,0.09-5.18,0.28
		c-1.3,0.19-2.31,0.49-3.01,0.9c-0.83,0.45-1.32,1.08-1.49,1.89c-0.16,0.81-0.25,1.81-0.25,3.01c0,1.41,0.09,2.49,0.28,3.26
		c0.19,0.77,0.62,1.29,1.31,1.58c0.68,0.29,1.73,0.52,3.13,0.68l10.18,1.18c1.28,0.12,2.44,0.32,3.48,0.59
		c1.03,0.27,1.95,0.71,2.76,1.33c0.81,0.62,1.44,1.51,1.89,2.67c0.29,0.58,0.51,1.24,0.65,1.98c0.15,0.75,0.27,1.56,0.37,2.46
		c0.1,0.89,0.16,1.89,0.16,3.01c0,2.36-0.24,4.33-0.71,5.9c-0.48,1.57-1.14,2.82-1.99,3.75c-0.85,0.93-1.89,1.64-3.13,2.11
		c-1.24,0.47-2.61,0.79-4.1,0.93C257.44,101.49,255.83,101.56,254.09,101.56z"/>
	<path class="st0" d="M278.3,101.07V58.36h7.02v42.71H278.3z"/>
	<path class="st0" d="M311.2,101.56c-1.53,0-3.22-0.04-5.06-0.12c-1.84-0.08-3.64-0.2-5.4-0.34c-1.76-0.15-3.36-0.3-4.81-0.47v-5.77
		c1.49,0.12,3.05,0.25,4.69,0.37c1.63,0.12,3.2,0.22,4.69,0.28c1.49,0.06,2.77,0.09,3.85,0.09c2.19,0,3.91-0.1,5.15-0.31
		c1.24-0.21,2.24-0.54,2.98-0.99c0.5-0.33,0.86-0.75,1.09-1.24c0.23-0.5,0.37-1.09,0.43-1.77c0.06-0.69,0.09-1.44,0.09-2.27
		c0-1.12-0.04-2.05-0.13-2.79c-0.08-0.74-0.27-1.32-0.56-1.74c-0.29-0.41-0.74-0.71-1.37-0.9c-0.62-0.18-1.43-0.34-2.42-0.47
		l-10.18-1.18c-1.99-0.25-3.61-0.67-4.88-1.28c-1.26-0.6-2.23-1.39-2.92-2.39c-0.68-0.99-1.14-2.17-1.39-3.54
		c-0.25-1.36-0.37-2.87-0.37-4.53c0-2.77,0.37-4.97,1.12-6.58c0.75-1.61,1.81-2.85,3.2-3.69c1.39-0.85,3.03-1.41,4.94-1.68
		c1.9-0.27,4.01-0.4,6.33-0.4c1.61,0,3.27,0.05,4.97,0.15c1.7,0.1,3.3,0.23,4.81,0.37c1.51,0.15,2.76,0.34,3.76,0.59v5.65
		c-1.04-0.17-2.25-0.31-3.63-0.43c-1.39-0.12-2.82-0.22-4.32-0.28c-1.49-0.06-2.88-0.09-4.16-0.09c-2.15,0-3.88,0.09-5.18,0.28
		c-1.3,0.19-2.31,0.49-3.01,0.9c-0.83,0.45-1.32,1.08-1.49,1.89c-0.17,0.81-0.25,1.81-0.25,3.01c0,1.41,0.09,2.49,0.28,3.26
		c0.19,0.77,0.62,1.29,1.3,1.58c0.68,0.29,1.73,0.52,3.13,0.68l10.18,1.18c1.28,0.12,2.44,0.32,3.48,0.59
		c1.04,0.27,1.96,0.71,2.76,1.33c0.81,0.62,1.44,1.51,1.89,2.67c0.29,0.58,0.5,1.24,0.65,1.98c0.14,0.75,0.27,1.56,0.37,2.46
		c0.1,0.89,0.15,1.89,0.15,3.01c0,2.36-0.24,4.33-0.71,5.9c-0.48,1.57-1.14,2.82-1.99,3.75c-0.85,0.93-1.89,1.64-3.14,2.11
		c-1.24,0.47-2.61,0.79-4.1,0.93C314.56,101.49,312.94,101.56,311.2,101.56z"/>
	<path class="st0" d="M220.38,50.85c-3.51,0-6.39-0.17-8.63-0.51s-4-0.99-5.27-1.95c-1.27-0.96-2.19-2.38-2.74-4.26
		c-0.56-1.88-0.9-4.33-1.05-7.37c-0.14-3.04-0.21-6.81-0.21-11.34c0-4.53,0.07-8.31,0.21-11.34c0.14-3.03,0.49-5.49,1.05-7.37
		c0.55-1.88,1.47-3.3,2.74-4.26c1.27-0.96,3.03-1.61,5.27-1.95c2.24-0.34,5.12-0.51,8.63-0.51c3.51,0,6.4,0.17,8.63,0.51
		c2.24,0.34,4,0.99,5.27,1.95c1.27,0.96,2.19,2.38,2.74,4.26c0.55,1.88,0.9,4.34,1.05,7.37c0.14,3.04,0.22,6.82,0.22,11.34
		c0,4.52-0.07,8.3-0.22,11.34c-0.14,3.03-0.5,5.49-1.05,7.37c-0.55,1.88-1.47,3.3-2.74,4.26c-1.28,0.96-3.03,1.61-5.27,1.95
		C226.78,50.68,223.89,50.85,220.38,50.85z M220.38,48.39c2.99,0,5.43-0.1,7.33-0.29c1.9-0.19,3.39-0.65,4.48-1.37
		c1.09-0.72,1.88-1.9,2.38-3.54c0.51-1.64,0.82-3.89,0.94-6.75c0.12-2.86,0.18-6.54,0.18-11.01c0-4.48-0.06-8.15-0.18-11.01
		c-0.12-2.87-0.43-5.12-0.94-6.76c-0.5-1.63-1.3-2.82-2.38-3.54c-1.08-0.72-2.58-1.18-4.48-1.37c-1.9-0.19-4.35-0.29-7.33-0.29
		c-2.93,0-5.37,0.1-7.29,0.29c-1.93,0.19-3.43,0.65-4.51,1.37c-1.08,0.72-1.88,1.9-2.38,3.54c-0.51,1.64-0.82,3.89-0.94,6.76
		c-0.12,2.86-0.18,6.53-0.18,11.01c0,4.48,0.07,8.15,0.18,11.01c0.12,2.87,0.43,5.12,0.94,6.75c0.51,1.64,1.3,2.82,2.38,3.54
		c1.08,0.72,2.59,1.18,4.51,1.37C215.01,48.29,217.45,48.39,220.38,48.39z"/>
	<g>
		<path d="M8.44,125.82H1.1v-1.02l3.88-4.31c0.57-0.65,0.97-1.18,1.19-1.59c0.22-0.41,0.33-0.83,0.33-1.27
			c0-0.58-0.18-1.06-0.53-1.44c-0.35-0.38-0.83-0.56-1.42-0.56c-0.71,0-1.26,0.2-1.65,0.61c-0.39,0.4-0.59,0.96-0.59,1.68H0.88
			c0-1.03,0.33-1.87,1-2.5c0.66-0.64,1.55-0.96,2.67-0.96c1.04,0,1.87,0.27,2.47,0.82c0.61,0.55,0.91,1.27,0.91,2.18
			c0,1.1-0.7,2.42-2.11,3.94l-3,3.26h5.63V125.82z"/>
		<path d="M16.75,117.54c0,0.56-0.15,1.06-0.44,1.49c-0.3,0.44-0.69,0.78-1.2,1.02c0.58,0.25,1.05,0.62,1.39,1.1
			c0.34,0.48,0.51,1.03,0.51,1.64c0,0.97-0.33,1.74-0.98,2.32c-0.65,0.58-1.52,0.86-2.58,0.86c-1.08,0-1.94-0.29-2.59-0.87
			c-0.65-0.58-0.97-1.35-0.97-2.31c0-0.61,0.17-1.15,0.5-1.64c0.33-0.49,0.79-0.86,1.37-1.11c-0.5-0.25-0.89-0.59-1.18-1.02
			c-0.29-0.44-0.43-0.93-0.43-1.49c0-0.95,0.3-1.69,0.91-2.25c0.61-0.55,1.4-0.83,2.39-0.83c0.99,0,1.78,0.28,2.39,0.83
			C16.44,115.85,16.75,116.59,16.75,117.54z M15.59,122.77c0-0.62-0.2-1.14-0.6-1.53c-0.4-0.4-0.92-0.59-1.56-0.59
			s-1.16,0.2-1.54,0.59c-0.39,0.39-0.58,0.9-0.58,1.54c0,0.64,0.19,1.14,0.57,1.5c0.38,0.36,0.9,0.55,1.57,0.55
			c0.67,0,1.19-0.18,1.57-0.55C15.4,123.9,15.59,123.4,15.59,122.77z M13.44,115.63c-0.56,0-1.01,0.17-1.36,0.52
			c-0.35,0.35-0.52,0.82-0.52,1.41c0,0.57,0.17,1.03,0.51,1.38s0.8,0.53,1.37,0.53c0.57,0,1.03-0.18,1.37-0.53s0.51-0.81,0.51-1.38
			c0-0.57-0.18-1.04-0.53-1.39C14.44,115.81,13.99,115.63,13.44,115.63z"/>
		<path d="M19.88,116.3v1.34h1.04v0.73h-1.04v3.45c0,0.22,0.05,0.39,0.14,0.5c0.09,0.11,0.25,0.17,0.47,0.17
			c0.11,0,0.26-0.02,0.45-0.06v0.77c-0.25,0.07-0.49,0.1-0.73,0.1c-0.42,0-0.74-0.13-0.96-0.38c-0.22-0.26-0.32-0.62-0.32-1.09
			v-3.44h-1.01v-0.73h1.01v-1.34H19.88z"/>
		<path d="M22.97,118.31c0.42-0.52,0.97-0.78,1.64-0.78c1.17,0,1.77,0.66,1.78,1.99v3.67h-0.95v-3.68c0-0.4-0.1-0.7-0.27-0.89
			c-0.18-0.19-0.46-0.29-0.84-0.29c-0.31,0-0.58,0.08-0.81,0.25c-0.23,0.16-0.41,0.38-0.54,0.65v3.96h-0.95v-7.88h0.95V118.31z"/>
		<path d="M33.88,125.82h-1.48v-11.21h1.48V125.82z"/>
		<path d="M37.71,117.49l0.05,1.05c0.64-0.8,1.47-1.2,2.49-1.2c1.76,0,2.65,0.99,2.66,2.98v5.5h-1.42v-5.51
			c0-0.6-0.14-1.04-0.41-1.33c-0.27-0.29-0.69-0.43-1.26-0.43c-0.46,0-0.87,0.12-1.22,0.37c-0.35,0.25-0.62,0.57-0.82,0.97v5.94
			h-1.42v-8.33H37.71z"/>
		<path d="M46.99,115.48v2.02h1.56v1.1h-1.56v5.17c0,0.33,0.07,0.59,0.21,0.75c0.14,0.17,0.37,0.25,0.71,0.25
			c0.16,0,0.39-0.03,0.68-0.09v1.15c-0.38,0.1-0.74,0.15-1.09,0.15c-0.64,0-1.12-0.19-1.44-0.58c-0.32-0.38-0.48-0.93-0.48-1.64
			v-5.17h-1.52v-1.1h1.52v-2.02H46.99z"/>
		<path d="M53.67,125.98c-1.13,0-2.05-0.37-2.76-1.11c-0.71-0.74-1.06-1.73-1.06-2.97v-0.26c0-0.83,0.16-1.56,0.47-2.21
			c0.32-0.65,0.76-1.16,1.32-1.53c0.57-0.37,1.18-0.55,1.84-0.55c1.08,0,1.92,0.36,2.52,1.07c0.6,0.71,0.9,1.73,0.9,3.06v0.59h-5.64
			c0.02,0.82,0.26,1.48,0.72,1.99c0.46,0.51,1.04,0.76,1.75,0.76c0.5,0,0.93-0.1,1.28-0.31c0.35-0.21,0.65-0.48,0.92-0.82l0.87,0.68
			C56.11,125.44,55.06,125.98,53.67,125.98z M53.49,118.51c-0.58,0-1.06,0.21-1.45,0.63c-0.39,0.42-0.63,1-0.72,1.76h4.17v-0.11
			c-0.04-0.72-0.24-1.28-0.58-1.68C54.56,118.71,54.09,118.51,53.49,118.51z"/>
		<path d="M62.59,118.77c-0.22-0.04-0.45-0.05-0.7-0.05c-0.93,0-1.57,0.4-1.9,1.19v5.91h-1.42v-8.33h1.39l0.02,0.96
			c0.47-0.74,1.13-1.12,1.99-1.12c0.28,0,0.49,0.04,0.63,0.11V118.77z"/>
		<path d="M65.25,117.49l0.05,1.05c0.64-0.8,1.47-1.2,2.49-1.2c1.76,0,2.65,0.99,2.66,2.98v5.5h-1.42v-5.51
			c-0.01-0.6-0.14-1.04-0.41-1.33c-0.27-0.29-0.69-0.43-1.26-0.43c-0.46,0-0.87,0.12-1.22,0.37c-0.35,0.25-0.62,0.57-0.82,0.97v5.94
			H63.9v-8.33H65.25z"/>
		<path d="M77.74,125.82c-0.08-0.16-0.15-0.46-0.2-0.88c-0.66,0.69-1.45,1.03-2.37,1.03c-0.82,0-1.49-0.23-2.02-0.7
			c-0.53-0.46-0.79-1.05-0.79-1.77c0-0.87,0.33-1.54,0.99-2.02c0.66-0.48,1.59-0.72,2.78-0.72h1.39v-0.65c0-0.5-0.15-0.89-0.45-1.19
			c-0.3-0.29-0.74-0.44-1.32-0.44c-0.51,0-0.93,0.13-1.28,0.38c-0.34,0.26-0.52,0.57-0.52,0.93h-1.43c0-0.42,0.15-0.82,0.44-1.21
			c0.3-0.39,0.7-0.7,1.2-0.92c0.51-0.23,1.06-0.34,1.67-0.34c0.96,0,1.71,0.24,2.26,0.72c0.54,0.48,0.83,1.14,0.85,1.98v3.83
			c0,0.76,0.1,1.37,0.29,1.82v0.12H77.74z M75.38,124.74c0.45,0,0.87-0.12,1.27-0.35c0.4-0.23,0.69-0.53,0.87-0.9v-1.71H76.4
			c-1.75,0-2.62,0.51-2.62,1.53c0,0.45,0.15,0.79,0.45,1.05C74.53,124.61,74.91,124.74,75.38,124.74z"/>
		<path d="M83.11,115.48v2.02h1.55v1.1h-1.55v5.17c0,0.33,0.07,0.59,0.21,0.75s0.37,0.25,0.71,0.25c0.16,0,0.39-0.03,0.68-0.09v1.15
			c-0.37,0.1-0.74,0.15-1.09,0.15c-0.64,0-1.12-0.19-1.44-0.58c-0.32-0.38-0.48-0.93-0.48-1.64v-5.17h-1.52v-1.1h1.52v-2.02H83.11z"
			/>
		<path d="M86.33,115.28c0-0.23,0.07-0.43,0.21-0.59c0.14-0.16,0.35-0.24,0.63-0.24c0.28,0,0.49,0.08,0.63,0.24
			c0.14,0.16,0.22,0.36,0.22,0.59c0,0.23-0.07,0.42-0.22,0.58c-0.14,0.15-0.35,0.23-0.63,0.23c-0.28,0-0.49-0.08-0.63-0.23
			C86.4,115.71,86.33,115.51,86.33,115.28z M87.87,125.82h-1.42v-8.33h1.42V125.82z"/>
		<path d="M89.77,121.58c0-0.82,0.16-1.55,0.48-2.2c0.32-0.65,0.77-1.15,1.34-1.51c0.57-0.35,1.23-0.53,1.96-0.53
			c1.13,0,2.05,0.39,2.75,1.18c0.7,0.79,1.05,1.83,1.05,3.13v0.1c0,0.81-0.16,1.54-0.47,2.18c-0.31,0.64-0.75,1.15-1.33,1.51
			c-0.58,0.36-1.24,0.54-1.99,0.54c-1.13,0-2.04-0.39-2.74-1.18c-0.7-0.79-1.05-1.82-1.05-3.12V121.58z M91.21,121.75
			c0,0.92,0.21,1.67,0.64,2.22c0.43,0.56,1,0.84,1.72,0.84c0.72,0,1.3-0.29,1.72-0.85c0.43-0.57,0.64-1.36,0.64-2.38
			c0-0.91-0.22-1.65-0.65-2.22c-0.43-0.57-1.01-0.85-1.73-0.85c-0.7,0-1.27,0.28-1.7,0.84C91.42,119.91,91.21,120.71,91.21,121.75z"
			/>
		<path d="M100.49,117.49l0.05,1.05c0.64-0.8,1.47-1.2,2.49-1.2c1.76,0,2.65,0.99,2.66,2.98v5.5h-1.42v-5.51
			c-0.01-0.6-0.14-1.04-0.41-1.33c-0.27-0.29-0.69-0.43-1.26-0.43c-0.46,0-0.87,0.12-1.22,0.37c-0.35,0.25-0.62,0.57-0.82,0.97v5.94
			h-1.42v-8.33H100.49z"/>
		<path d="M112.98,125.82c-0.08-0.16-0.15-0.46-0.2-0.88c-0.66,0.69-1.45,1.03-2.37,1.03c-0.82,0-1.49-0.23-2.02-0.7
			c-0.53-0.46-0.79-1.05-0.79-1.77c0-0.87,0.33-1.54,0.99-2.02c0.66-0.48,1.59-0.72,2.78-0.72h1.39v-0.65c0-0.5-0.15-0.89-0.45-1.19
			c-0.3-0.29-0.74-0.44-1.32-0.44c-0.51,0-0.93,0.13-1.28,0.38c-0.34,0.26-0.52,0.57-0.52,0.93h-1.43c0-0.42,0.15-0.82,0.44-1.21
			c0.3-0.39,0.7-0.7,1.2-0.92c0.51-0.23,1.06-0.34,1.67-0.34c0.96,0,1.71,0.24,2.26,0.72c0.54,0.48,0.83,1.14,0.85,1.98v3.83
			c0,0.76,0.1,1.37,0.29,1.82v0.12H112.98z M110.62,124.74c0.45,0,0.87-0.12,1.27-0.35c0.4-0.23,0.69-0.53,0.87-0.9v-1.71h-1.12
			c-1.75,0-2.62,0.51-2.62,1.53c0,0.45,0.15,0.79,0.45,1.05C109.77,124.61,110.15,124.74,110.62,124.74z"/>
		<path d="M117.97,125.82h-1.42V114h1.42V125.82z"/>
		<path d="M127.67,120.83c-1.27-0.37-2.19-0.81-2.77-1.34c-0.58-0.53-0.87-1.19-0.87-1.97c0-0.88,0.35-1.61,1.06-2.19
			c0.71-0.58,1.62-0.87,2.75-0.87c0.77,0,1.46,0.15,2.06,0.45c0.6,0.3,1.07,0.71,1.4,1.23c0.33,0.52,0.5,1.1,0.5,1.71h-1.49
			c0-0.68-0.22-1.21-0.65-1.6c-0.43-0.39-1.04-0.58-1.82-0.58c-0.73,0-1.3,0.16-1.71,0.48c-0.41,0.32-0.61,0.77-0.61,1.34
			c0,0.46,0.19,0.85,0.58,1.16c0.39,0.32,1.05,0.61,1.98,0.87c0.93,0.26,1.66,0.55,2.19,0.87c0.53,0.32,0.92,0.68,1.17,1.11
			c0.25,0.42,0.38,0.92,0.38,1.49c0,0.91-0.35,1.63-1.06,2.18c-0.71,0.55-1.65,0.82-2.84,0.82c-0.77,0-1.49-0.15-2.16-0.44
			c-0.67-0.29-1.18-0.7-1.54-1.21c-0.36-0.51-0.54-1.1-0.54-1.75h1.49c0,0.68,0.25,1.21,0.75,1.6c0.5,0.39,1.17,0.59,2.01,0.59
			c0.78,0,1.38-0.16,1.79-0.48c0.42-0.32,0.62-0.75,0.62-1.3c0-0.55-0.19-0.97-0.58-1.28C129.38,121.41,128.68,121.12,127.67,120.83
			z"/>
		<path d="M136.23,123.74l1.94-6.24h1.52l-3.35,9.62c-0.52,1.39-1.34,2.08-2.47,2.08l-0.27-0.02l-0.53-0.1v-1.15l0.38,0.03
			c0.48,0,0.86-0.1,1.13-0.29c0.27-0.2,0.49-0.55,0.67-1.07l0.32-0.85l-2.97-8.24h1.56L136.23,123.74z"/>
		<path d="M142.3,117.49l0.04,0.92c0.61-0.72,1.43-1.08,2.47-1.08c1.17,0,1.96,0.45,2.38,1.34c0.28-0.4,0.64-0.72,1.08-0.97
			c0.44-0.25,0.97-0.37,1.57-0.37c1.83,0,2.76,0.97,2.79,2.9v5.58h-1.42v-5.5c0-0.6-0.14-1.04-0.41-1.34
			c-0.27-0.29-0.73-0.44-1.37-0.44c-0.53,0-0.97,0.16-1.32,0.47c-0.35,0.31-0.55,0.74-0.61,1.27v5.53h-1.43v-5.46
			c0-1.21-0.59-1.82-1.78-1.82c-0.93,0-1.57,0.4-1.92,1.19v6.08h-1.42v-8.33H142.3z"/>
		<path d="M161.82,121.75c0,1.27-0.29,2.29-0.87,3.06c-0.58,0.77-1.37,1.16-2.36,1.16c-1.01,0-1.81-0.32-2.39-0.96v4.01h-1.42
			v-11.53h1.3l0.07,0.92c0.58-0.72,1.39-1.08,2.42-1.08c1,0,1.79,0.38,2.38,1.13c0.58,0.75,0.87,1.8,0.87,3.15V121.75z
			 M160.39,121.59c0-0.94-0.2-1.68-0.6-2.22c-0.4-0.54-0.95-0.82-1.65-0.82c-0.86,0-1.51,0.38-1.94,1.15v3.98
			c0.43,0.76,1.08,1.14,1.96,1.14c0.68,0,1.23-0.27,1.63-0.81C160.19,123.46,160.39,122.66,160.39,121.59z"/>
		<path d="M163.25,121.58c0-0.82,0.16-1.55,0.48-2.2c0.32-0.65,0.77-1.15,1.34-1.51c0.57-0.35,1.22-0.53,1.96-0.53
			c1.13,0,2.05,0.39,2.75,1.18c0.7,0.79,1.05,1.83,1.05,3.13v0.1c0,0.81-0.16,1.54-0.47,2.18c-0.31,0.64-0.75,1.15-1.33,1.51
			c-0.58,0.36-1.24,0.54-1.99,0.54c-1.13,0-2.04-0.39-2.75-1.18c-0.7-0.79-1.05-1.82-1.05-3.12V121.58z M164.68,121.75
			c0,0.92,0.21,1.67,0.64,2.22c0.43,0.56,1,0.84,1.72,0.84c0.72,0,1.3-0.29,1.72-0.85c0.43-0.57,0.64-1.36,0.64-2.38
			c0-0.91-0.22-1.65-0.65-2.22c-0.43-0.57-1.01-0.85-1.73-0.85c-0.7,0-1.27,0.28-1.7,0.84
			C164.89,119.91,164.68,120.71,164.68,121.75z"/>
		<path d="M177.47,123.61c0-0.38-0.14-0.68-0.43-0.9c-0.29-0.21-0.8-0.4-1.52-0.55c-0.72-0.15-1.29-0.34-1.72-0.55
			c-0.42-0.21-0.74-0.47-0.94-0.77c-0.2-0.3-0.3-0.65-0.3-1.06c0-0.68,0.29-1.26,0.87-1.73c0.58-0.47,1.31-0.71,2.21-0.71
			c0.94,0,1.71,0.24,2.3,0.73c0.59,0.49,0.88,1.11,0.88,1.87h-1.43c0-0.39-0.17-0.73-0.5-1.01c-0.33-0.28-0.75-0.42-1.25-0.42
			c-0.52,0-0.92,0.11-1.22,0.34c-0.29,0.23-0.44,0.52-0.44,0.88c0,0.34,0.14,0.6,0.41,0.78c0.27,0.18,0.76,0.34,1.47,0.5
			c0.71,0.16,1.29,0.35,1.73,0.57c0.44,0.22,0.77,0.49,0.98,0.8c0.21,0.31,0.32,0.69,0.32,1.14c0,0.74-0.3,1.34-0.89,1.79
			c-0.59,0.45-1.37,0.67-2.32,0.67c-0.67,0-1.26-0.12-1.77-0.35c-0.51-0.24-0.91-0.57-1.2-0.99c-0.29-0.42-0.44-0.88-0.44-1.38h1.42
			c0.03,0.48,0.22,0.86,0.57,1.14c0.36,0.28,0.83,0.42,1.41,0.42c0.54,0,0.97-0.11,1.3-0.33
			C177.3,124.27,177.47,123.98,177.47,123.61z"/>
		<path d="M180.75,115.28c0-0.23,0.07-0.43,0.21-0.59c0.14-0.16,0.35-0.24,0.63-0.24c0.28,0,0.49,0.08,0.63,0.24
			c0.14,0.16,0.22,0.36,0.22,0.59c0,0.23-0.07,0.42-0.22,0.58c-0.14,0.15-0.35,0.23-0.63,0.23c-0.28,0-0.49-0.08-0.63-0.23
			C180.82,115.71,180.75,115.51,180.75,115.28z M182.29,125.82h-1.42v-8.33h1.42V125.82z"/>
		<path d="M189.71,125c-0.55,0.65-1.37,0.98-2.44,0.98c-0.89,0-1.56-0.26-2.03-0.77c-0.46-0.52-0.7-1.28-0.7-2.29v-5.42h1.42v5.38
			c0,1.26,0.51,1.89,1.54,1.89c1.09,0,1.81-0.41,2.17-1.22v-6.06h1.42v8.33h-1.35L189.71,125z"/>
		<path d="M194.6,117.49l0.04,0.92c0.61-0.72,1.43-1.08,2.47-1.08c1.16,0,1.96,0.45,2.38,1.34c0.28-0.4,0.64-0.72,1.08-0.97
			c0.44-0.25,0.97-0.37,1.57-0.37c1.83,0,2.76,0.97,2.79,2.9v5.58h-1.42v-5.5c0-0.6-0.14-1.04-0.41-1.34
			c-0.27-0.29-0.73-0.44-1.37-0.44c-0.53,0-0.97,0.16-1.32,0.47c-0.35,0.31-0.55,0.74-0.61,1.27v5.53h-1.43v-5.46
			c0-1.21-0.59-1.82-1.78-1.82c-0.93,0-1.57,0.4-1.92,1.19v6.08h-1.42v-8.33H194.6z"/>
		<path d="M210.61,121.58c0-0.82,0.16-1.55,0.48-2.2c0.32-0.65,0.77-1.15,1.34-1.51c0.57-0.35,1.22-0.53,1.96-0.53
			c1.13,0,2.05,0.39,2.75,1.18c0.7,0.79,1.05,1.83,1.05,3.13v0.1c0,0.81-0.16,1.54-0.47,2.18c-0.31,0.64-0.75,1.15-1.33,1.51
			c-0.58,0.36-1.24,0.54-1.99,0.54c-1.13,0-2.04-0.39-2.75-1.18c-0.7-0.79-1.05-1.82-1.05-3.12V121.58z M212.04,121.75
			c0,0.92,0.21,1.67,0.64,2.22c0.43,0.56,1,0.84,1.72,0.84c0.72,0,1.3-0.29,1.72-0.85c0.43-0.57,0.64-1.36,0.64-2.38
			c0-0.91-0.22-1.65-0.65-2.22s-1.01-0.85-1.73-0.85c-0.7,0-1.27,0.28-1.7,0.84C212.26,119.91,212.04,120.71,212.04,121.75z"/>
		<path d="M221.32,117.49l0.05,1.05c0.64-0.8,1.47-1.2,2.49-1.2c1.76,0,2.65,0.99,2.66,2.98v5.5h-1.42v-5.51
			c0-0.6-0.14-1.04-0.41-1.33c-0.27-0.29-0.69-0.43-1.26-0.43c-0.46,0-0.87,0.12-1.22,0.37c-0.35,0.25-0.62,0.57-0.82,0.97v5.94
			h-1.42v-8.33H221.32z"/>
		<path d="M239.14,120.64h-4.86v3.97h5.64v1.21h-7.12v-11.21h7.04v1.21h-5.57v3.61h4.86V120.64z"/>
		<path d="M243.09,125.82h-1.42V114h1.42V125.82z"/>
		<path d="M248.82,125.98c-1.13,0-2.05-0.37-2.76-1.11c-0.71-0.74-1.06-1.73-1.06-2.97v-0.26c0-0.83,0.16-1.56,0.47-2.21
			c0.32-0.65,0.76-1.16,1.32-1.53c0.57-0.37,1.18-0.55,1.84-0.55c1.08,0,1.92,0.36,2.52,1.07c0.6,0.71,0.9,1.73,0.9,3.06v0.59h-5.64
			c0.02,0.82,0.26,1.48,0.72,1.99c0.46,0.51,1.04,0.76,1.75,0.76c0.5,0,0.93-0.1,1.28-0.31c0.35-0.21,0.65-0.48,0.92-0.82l0.87,0.68
			C251.27,125.44,250.22,125.98,248.82,125.98z M248.65,118.51c-0.58,0-1.06,0.21-1.45,0.63c-0.39,0.42-0.63,1-0.72,1.76h4.17v-0.11
			c-0.04-0.72-0.24-1.28-0.58-1.68C249.71,118.71,249.24,118.51,248.65,118.51z"/>
		<path d="M257.06,124.81c0.51,0,0.95-0.15,1.33-0.46c0.38-0.31,0.59-0.69,0.63-1.15h1.35c-0.03,0.48-0.19,0.93-0.49,1.36
			c-0.3,0.43-0.71,0.77-1.21,1.03c-0.51,0.26-1.04,0.38-1.61,0.38c-1.13,0-2.04-0.38-2.71-1.14c-0.67-0.76-1-1.79-1-3.11v-0.24
			c0-0.81,0.15-1.53,0.45-2.16c0.3-0.63,0.72-1.12,1.28-1.47c0.56-0.35,1.21-0.52,1.97-0.52c0.93,0,1.71,0.28,2.33,0.84
			c0.62,0.56,0.95,1.29,0.99,2.18h-1.35c-0.04-0.54-0.25-0.98-0.61-1.33c-0.37-0.35-0.82-0.52-1.36-0.52
			c-0.72,0-1.28,0.26-1.68,0.78c-0.4,0.52-0.6,1.27-0.6,2.26v0.27c0,0.96,0.2,1.7,0.59,2.22
			C255.76,124.55,256.33,124.81,257.06,124.81z"/>
		<path d="M263.9,115.48v2.02h1.56v1.1h-1.56v5.17c0,0.33,0.07,0.59,0.21,0.75c0.14,0.17,0.38,0.25,0.71,0.25
			c0.16,0,0.39-0.03,0.68-0.09v1.15c-0.38,0.1-0.74,0.15-1.09,0.15c-0.64,0-1.12-0.19-1.44-0.58c-0.32-0.38-0.48-0.93-0.48-1.64
			v-5.17h-1.52v-1.1h1.52v-2.02H263.9z"/>
		<path d="M271.15,118.77c-0.22-0.04-0.45-0.05-0.7-0.05c-0.93,0-1.57,0.4-1.9,1.19v5.91h-1.42v-8.33h1.39l0.02,0.96
			c0.47-0.74,1.13-1.12,1.99-1.12c0.28,0,0.49,0.04,0.63,0.11V118.77z"/>
		<path d="M271.93,121.58c0-0.82,0.16-1.55,0.48-2.2c0.32-0.65,0.77-1.15,1.34-1.51c0.57-0.35,1.22-0.53,1.96-0.53
			c1.13,0,2.05,0.39,2.75,1.18c0.7,0.79,1.05,1.83,1.05,3.13v0.1c0,0.81-0.16,1.54-0.47,2.18c-0.31,0.64-0.75,1.15-1.33,1.51
			c-0.58,0.36-1.24,0.54-1.99,0.54c-1.13,0-2.04-0.39-2.75-1.18c-0.7-0.79-1.05-1.82-1.05-3.12V121.58z M273.36,121.75
			c0,0.92,0.21,1.67,0.64,2.22c0.43,0.56,1,0.84,1.72,0.84c0.72,0,1.3-0.29,1.72-0.85c0.43-0.57,0.64-1.36,0.64-2.38
			c0-0.91-0.22-1.65-0.65-2.22c-0.43-0.57-1.01-0.85-1.73-0.85c-0.7,0-1.27,0.28-1.7,0.84
			C273.57,119.91,273.36,120.71,273.36,121.75z"/>
		<path d="M282.64,117.49l0.05,1.05c0.64-0.8,1.47-1.2,2.49-1.2c1.76,0,2.65,0.99,2.66,2.98v5.5h-1.42v-5.51
			c0-0.6-0.14-1.04-0.41-1.33c-0.27-0.29-0.69-0.43-1.26-0.43c-0.46,0-0.87,0.12-1.22,0.37c-0.35,0.25-0.62,0.57-0.82,0.97v5.94
			h-1.42v-8.33H282.64z"/>
		<path d="M290,115.28c0-0.23,0.07-0.43,0.21-0.59c0.14-0.16,0.35-0.24,0.63-0.24c0.28,0,0.49,0.08,0.63,0.24
			c0.14,0.16,0.21,0.36,0.21,0.59c0,0.23-0.07,0.42-0.21,0.58c-0.14,0.15-0.35,0.23-0.63,0.23c-0.28,0-0.49-0.08-0.63-0.23
			C290.07,115.71,290,115.51,290,115.28z M291.54,125.82h-1.42v-8.33h1.42V125.82z"/>
		<path d="M297.16,124.81c0.51,0,0.95-0.15,1.33-0.46c0.38-0.31,0.59-0.69,0.63-1.15h1.35c-0.03,0.48-0.19,0.93-0.49,1.36
			c-0.3,0.43-0.71,0.77-1.21,1.03c-0.51,0.26-1.04,0.38-1.61,0.38c-1.13,0-2.04-0.38-2.71-1.14c-0.67-0.76-1-1.79-1-3.11v-0.24
			c0-0.81,0.15-1.53,0.45-2.16c0.3-0.63,0.72-1.12,1.28-1.47c0.56-0.35,1.22-0.52,1.97-0.52c0.93,0,1.71,0.28,2.33,0.84
			c0.62,0.56,0.95,1.29,0.99,2.18h-1.35c-0.04-0.54-0.24-0.98-0.61-1.33c-0.37-0.35-0.82-0.52-1.36-0.52
			c-0.72,0-1.28,0.26-1.68,0.78c-0.4,0.52-0.6,1.27-0.6,2.26v0.27c0,0.96,0.2,1.7,0.59,2.22
			C295.86,124.55,296.43,124.81,297.16,124.81z"/>
		<path d="M312.39,122.89h-4.7l-1.05,2.93h-1.52l4.28-11.21h1.29l4.29,11.21h-1.52L312.39,122.89z M308.14,121.68h3.81l-1.91-5.24
			L308.14,121.68z"/>
		<path d="M320.29,118.77c-0.21-0.04-0.45-0.05-0.7-0.05c-0.93,0-1.57,0.4-1.9,1.19v5.91h-1.42v-8.33h1.39l0.02,0.96
			c0.47-0.74,1.13-1.12,1.99-1.12c0.28,0,0.49,0.04,0.63,0.11V118.77z"/>
		<path d="M323.91,115.48v2.02h1.56v1.1h-1.56v5.17c0,0.33,0.07,0.59,0.21,0.75c0.14,0.17,0.38,0.25,0.71,0.25
			c0.16,0,0.39-0.03,0.68-0.09v1.15c-0.38,0.1-0.74,0.15-1.09,0.15c-0.64,0-1.12-0.19-1.44-0.58c-0.32-0.38-0.48-0.93-0.48-1.64
			v-5.17h-1.52v-1.1h1.52v-2.02H323.91z"/>
	</g>
</g>
</svg>
