<svg width="280" height="109" viewBox="0 0 280 109" version="1.1" xmlns="http://www.w3.org/2000/svg"><title>RAC-Logo</title><g id="Page-1" stroke="none" stroke-width="1" fill="none" fill-rule="evenodd"><g id="Home" transform="translate(-147 -53)"><g id="RAC-Logo" transform="translate(147 53)"><path id="Fill-1" fill="#939" d="M0 109h109V0H0z"/><g id="Group-58" transform="translate(18 17)" fill="#FFF"><path d="M115.061 5.42v6.429h1.181c.798 0 4.087-.098 4.087-3.23 0-3.168-3.255-3.198-4.023-3.198h-1.245zm0 9.37v8.57h-4.149V2.033h6.162c2.936 0 4.436.765 5.426 1.598 1.627 1.375 2.106 3.198 2.106 4.796 0 2.078-.83 3.902-2.49 5.02-.542.385-1.308.737-2.33.929l6.64 8.986h-5.171l-5.682-8.57h-.512z" id="Fill-2"/><path d="M138.17 17.348c0 .736-.063 1.727-.83 2.43-.478.416-1.244.704-1.98.704-.732 0-1.5-.288-1.979-.704-.764-.703-.828-1.694-.828-2.43V9.513h-3.895v8.475c0 1.247.16 2.91 1.691 4.252 1.277 1.12 3.32 1.567 5.011 1.567 1.693 0 3.737-.446 5.014-1.567 1.53-1.343 1.692-3.005 1.692-4.252V9.513h-3.896v7.835z" id="Fill-4"/><path d="M153.107 12.52c2.235 0 3.832 1.694 3.832 3.902 0 2.205-1.597 3.933-3.832 3.933-2.234 0-3.831-1.728-3.831-3.933 0-2.208 1.597-3.902 3.831-3.902zm-3.447 9.05c1.5 2.078 3.511 2.238 4.405 2.238 4.087 0 6.895-3.166 6.895-7.386 0-4.19-2.712-7.355-6.798-7.355-1.182 0-3.13.32-4.502 2.238V.049h-3.895V23.36h3.895v-1.79z" id="Fill-6"/><path d="M170.661 11.816c1.437 0 2.97.895 3.29 2.782h-6.545c.319-1.853 1.819-2.782 3.255-2.782m6.864 7.675l-3.575-.575c-.64 1.119-1.755 1.822-3.225 1.822-1.5 0-2.362-.735-2.777-1.31-.447-.608-.67-1.504-.67-2.335h10.343v-.32c0-1.502-.192-3.678-1.66-5.437-.958-1.15-2.585-2.27-5.394-2.27-1.661 0-3.576.352-5.204 1.95-.99.992-2.107 2.688-2.107 5.436 0 2.176.639 3.966 2.17 5.405 1.373 1.312 3.065 1.95 5.3 1.95 4.82 0 6.384-3.293 6.799-4.316" id="Fill-8"/><path d="M193.962 23.36v-8.697c0-1.344-.128-2.719-1.086-3.902-1.085-1.344-2.874-1.694-4.085-1.694-2.234 0-3.544 1.215-4.278 2.238v-1.79h-3.894V23.36h3.894v-7.066c0-.8.032-1.792.606-2.687.575-.863 1.374-1.215 2.395-1.215.382 0 1.213.064 1.82.703.702.736.732 1.95.732 2.72v7.545h3.896z" id="Fill-10"/><path d="M203.6 14.534l-.927-.286c-1.085-.352-1.244-.896-1.244-1.249 0-.671.574-1.119 1.5-1.119.414 0 1.341.064 2.267.929l1.915-2.272c-1.756-1.343-3.383-1.47-4.405-1.47-1.118 0-2.521.127-3.608.99a4.115 4.115 0 0 0-1.436 3.134c0 1.12.415 1.982 1.053 2.654.83.864 1.979 1.312 2.97 1.664l.893.32c.51.19 1.213.543 1.213 1.405 0 .96-.83 1.504-1.915 1.504-1.149 0-2.298-.703-3.065-1.599l-2.043 2.366c.862.93 2.49 2.303 5.362 2.303 1.692 0 3.034-.448 4.15-1.471 1.118-1.023 1.533-2.27 1.533-3.517 0-.896-.287-1.727-.702-2.304-.798-1.087-2.426-1.63-3.511-1.982" id="Fill-12"/><path id="Fill-14" d="M210.556 23.36h3.896V12.84h2.68V9.514h-2.68V4.781h-3.896v4.733h-1.533v3.326h1.533z"/><path d="M222.62 14.598c.32-1.853 1.82-2.782 3.256-2.782 1.436 0 2.97.895 3.289 2.782h-6.545zm3.161-5.532c-1.66 0-3.576.352-5.204 1.95-.989.992-2.106 2.688-2.106 5.436 0 2.174.638 3.966 2.17 5.405 1.373 1.311 3.064 1.95 5.298 1.95 4.821 0 6.385-3.293 6.802-4.316l-3.576-.575c-.64 1.119-1.756 1.822-3.226 1.822-1.5 0-2.361-.735-2.776-1.31-.447-.608-.67-1.504-.67-2.335h10.342v-.32c0-1.502-.191-3.678-1.66-5.437-.957-1.15-2.585-2.27-5.394-2.27z" id="Fill-16"/><path d="M237.781 5.997a2.346 2.346 0 0 0 2.33-2.334 2.346 2.346 0 0 0-2.33-2.336 2.346 2.346 0 0 0-2.33 2.336 2.346 2.346 0 0 0 2.33 2.334" id="Fill-18"/><path id="Fill-20" d="M235.834 23.36h3.895V9.516h-3.895z"/><path d="M252.878 15.814v7.546h3.895v-8.697c0-1.344-.127-2.72-1.085-3.902-1.086-1.343-2.874-1.695-4.087-1.695-2.234 0-3.542 1.215-4.276 2.238v-1.79h-3.896V23.36h3.896v-7.066c0-.801.03-1.791.606-2.688.573-.861 1.372-1.213 2.394-1.213.383 0 1.213.062 1.819.702.704.737.734 1.952.734 2.719" id="Fill-22"/><path d="M116.243 44.56l3.034-7.674 3.032 7.674h-6.066zm1.47-13.462l-9.163 21.329h4.501l1.883-4.477h8.588l1.883 4.477h4.47l-8.907-21.33h-3.255z" id="Fill-23"/><path d="M137.404 38.74c-.286.16-1.117.736-1.722 1.918V38.58h-3.895v13.846h3.895v-6.65c0-.96.03-2.144.764-3.071.766-.96 1.852-1.12 2.586-1.12.8 0 1.308.16 1.82.512l.511-3.645c-.447-.161-.99-.32-1.66-.32-.927 0-1.693.223-2.3.608" id="Fill-24"/><path id="Fill-25" d="M148.16 33.847h-3.895v4.734h-1.532v3.325h1.532v10.52h3.895v-10.52h2.681V38.58h-2.68z"/><path d="M158.82 43.6l-.927-.286c-1.085-.352-1.245-.895-1.245-1.248 0-.672.575-1.12 1.5-1.12.415 0 1.342.065 2.268.93l1.915-2.272c-1.756-1.343-3.383-1.47-4.405-1.47-1.118 0-2.521.127-3.608.99a4.115 4.115 0 0 0-1.436 3.134c0 1.12.415 1.982 1.053 2.653.83.865 1.979 1.313 2.97 1.664l.894.32c.509.19 1.212.544 1.212 1.406 0 .96-.83 1.504-1.915 1.504-1.149 0-2.298-.704-3.065-1.599l-2.043 2.366c.862.929 2.49 2.302 5.362 2.302 1.692 0 3.034-.447 4.15-1.47 1.118-1.024 1.533-2.27 1.533-3.518 0-.895-.287-1.726-.702-2.303-.798-1.087-2.426-1.63-3.511-1.982" id="Fill-26"/><path d="M176.181 33.431c-1.82 1.696-3.415 4.478-3.415 8.347 0 3.133.957 5.789 3.415 8.155 1.787 1.696 4.055 2.973 7.79 2.973 2.297 0 3.989-.575 5.266-1.247v-4.861c-1.244 1.472-3 2.335-4.98 2.335-3.574 0-7.213-2.558-7.213-7.291 0-3.933 2.777-7.451 7.054-7.451.766 0 3.192.16 5.139 2.399v-4.861c-1.947-1.055-3.735-1.311-5.235-1.311-3.032 0-5.681.8-7.821 2.813" id="Fill-27"/><path d="M195.937 43.664c.319-1.853 1.819-2.781 3.255-2.781s2.97.895 3.289 2.781h-6.544zm3.16-5.531c-1.66 0-3.575.352-5.203 1.95-.99.991-2.107 2.688-2.107 5.436 0 2.174.639 3.966 2.17 5.405 1.373 1.31 3.065 1.95 5.299 1.95 4.82 0 6.385-3.293 6.801-4.316l-3.576-.576c-.64 1.12-1.755 1.823-3.225 1.823-1.5 0-2.362-.736-2.777-1.311-.447-.608-.67-1.503-.67-2.334h10.342v-.32c0-1.503-.191-3.678-1.66-5.437-.957-1.151-2.585-2.27-5.393-2.27z" id="Fill-28"/><path d="M217.323 38.134c-2.234 0-3.543 1.214-4.277 2.238v-1.79h-3.895v13.845h3.895v-7.066c0-.8.03-1.792.606-2.687.573-.864 1.373-1.215 2.394-1.215.383 0 1.213.064 1.82.702.702.737.733 1.952.733 2.72v7.546h3.894V43.73c0-1.344-.126-2.72-1.085-3.902-1.085-1.344-2.872-1.694-4.085-1.694" id="Fill-29"/><path id="Fill-30" d="M230.09 33.847h-3.896v4.734h-1.532v3.325h1.532v10.52h3.895v-10.52h2.681V38.58h-2.68z"/><path d="M238.258 43.664c.32-1.853 1.82-2.781 3.256-2.781 1.436 0 2.97.895 3.289 2.781h-6.545zm3.162-5.531c-1.661 0-3.576.352-5.204 1.95-.99.991-2.107 2.688-2.107 5.436 0 2.174.639 3.966 2.17 5.405 1.373 1.31 3.065 1.95 5.299 1.95 4.82 0 6.385-3.293 6.801-4.316l-3.576-.576c-.64 1.12-1.756 1.823-3.225 1.823-1.5 0-2.362-.736-2.777-1.311-.447-.608-.67-1.503-.67-2.334h10.342v-.32c0-1.503-.191-3.678-1.66-5.437-.957-1.151-2.585-2.27-5.393-2.27z" id="Fill-31"/><path d="M259.388 38.134c-.927 0-1.693.222-2.3.607-.285.158-1.115.735-1.721 1.917V38.58h-3.896v13.846h3.896v-6.65c0-.96.03-2.144.764-3.071.766-.96 1.851-1.12 2.585-1.12.8 0 1.31.16 1.821.512l.51-3.645c-.446-.161-.989-.32-1.659-.32" id="Fill-32"/><path d="M112.945 74.707c-1.182 1.08-1.804 1.35-2.012 1.35-.186 0-.31-.145-.31-.393 0-1.475 1.265-4.198 2.592-5.382.643-.583.975-.811 1.473-.811.54 0 .892.353 1.037.748-.332 1.226-1.203 3.013-2.78 4.488m4.897-6.483c-.125-.27-.665-.478-1.017-.311l-.582 1.33a1.205 1.205 0 0 0-.413-.438 1.026 1.026 0 0 0-.498-.123c-.541 0-1.06.145-1.869.602-.85.478-1.74 1.309-2.737 2.68-1.368 1.892-1.825 3.554-1.825 4.031 0 .583.332 1.164.912 1.164.975 0 3.092-1.433 4.564-3.263l.063.022-.685 1.87c-.167.477-.208.665-.208.81a.57.57 0 0 0 .603.561c1.14 0 2.612-1.164 3.483-2.328 0-.166-.145-.269-.29-.269-1.183 1.04-1.783 1.392-2.136 1.392-.167 0-.27-.125-.146-.478.664-1.89 2.469-6.483 2.78-7.252" id="Fill-33"/><path d="M122.737 68.723l.603-2.036c-.167-.208-.58-.25-.788-.125l-1.162 2.056-1.66.291c-.207.084-.27.375-.228.583h1.618l-2.012 5.922c-.208.624-.29.914-.29 1.183 0 .25.27.563.56.563.871 0 2.82-1.268 3.982-2.993.042-.25-.083-.375-.29-.375-.685.79-2.055 1.87-2.365 1.87-.165 0-.27-.124-.145-.518l1.93-5.652h2.26c.27-.146.394-.561.25-.769h-2.263z" id="Fill-34"/><path d="M136.098 76.39c-1.306 0-2.095-.207-2.55-.851-.353-.5-.416-1.164-.416-2.266v-7.666c0-.936.04-1.455.208-1.58.165-.125.828-.292 2.053-.292 5.434 0 6.534 3.866 6.534 6.15 0 3.866-1.805 6.506-5.83 6.506m3.693-12.676c-1.348-.499-2.82-.622-4.564-.622-1.762 0-3.443.06-5.206.165-.207.083-.187.416-.02.52l.456.062c.871.125.974.56.974 2.015v7.896c0 2.182-.042 2.432-1.244 2.597l-.476.063c-.125.125-.083.458.04.52a56.54 56.54 0 0 1 2.593-.062c.727 0 2.054.165 3.382.165 1.597 0 3.297-.27 4.645-.997 2.365-1.289 3.63-3.553 3.63-6.192 0-2.743-1.41-5.112-4.21-6.13" id="Fill-35"/><path d="M154.209 76.1c-.58 0-.643-.624-.643-2.266v-3.49c0-.77.02-1.414.063-1.809-.022-.083-.084-.123-.187-.145-.457.208-1.598.353-2.428.375-.165.083-.165.373-.02.457l.27.104c.62.248.767.29.767 1.64v3.409c0 .643-.146.956-.415 1.206a2.72 2.72 0 0 1-1.68.622c-1.577 0-1.93-.955-1.93-2.39v-3.469c0-1.018.021-1.454.063-1.809-.021-.083-.084-.123-.207-.145-.456.167-1.265.353-2.22.375-.145.062-.167.353-.042.457l.25.104c.622.27.622.456.622 1.765v3.471c0 1.683.685 2.597 2.51 2.597 1.224 0 2.24-.686 2.862-1.081.125 0 .187.105.187.292v.852a.288.288 0 0 0 .248.145c.706-.395 1.91-.602 2.718-.769.167-.083.145-.498.022-.603a3.94 3.94 0 0 1-.81.105" id="Fill-36"/><path d="M165.329 76.37c-.373-.063-.788-.187-1.08-.457-.415-.395-1.14-1.206-1.948-2.12-.707-.79-1.039-1.185-1.39-1.663-.125-.166-.104-.27.145-.499.373-.353 1.078-1.101 1.886-1.745.541-.436.892-.644 1.307-.727l.665-.125c.124-.103.103-.456-.042-.519a32.25 32.25 0 0 1-3.298.166h-.477c-.186.063-.186.456 0 .519l.497.062c.353.043.457.105.457.208 0 .105-.145.333-.727.957l-.85.914c-.56.581-.953.81-1.41.81-.352 0-.373-.041-.373-.312v-7.127c0-.914.04-1.953.061-2.575a.224.224 0 0 0-.206-.125c-.747.394-1.722.705-2.241.872-.103.062-.103.353 0 .415l.207.125c.623.374.644.499.644 1.724v9.393c0 1.495-.021 1.705-.789 1.808l-.455.062c-.166.104-.125.457.02.52a28.703 28.703 0 0 1 1.992-.063c.725 0 1.327.02 2.01.062.146-.062.188-.415.043-.519l-.498-.062c-.747-.103-.788-.313-.788-1.808v-1.142c0-.646.02-.708.393-.708a.85.85 0 0 1 .645.29l2.218 2.577c.27.313.354.458.354.583 0 .125-.208.166-.52.208l-.374.062c-.145.083-.123.436.042.52a31.677 31.677 0 0 1 2.158-.063c.664 0 1.37.02 1.97.062.167-.062.187-.415.042-.519l-.29-.042z" id="Fill-37"/><path d="M169.997 69.014c1.204 0 1.597.727 1.597 1.308 0 .27-.062.355-.125.395-.165.125-.622.208-2.157.208h-1.473c-.145 0-.145-.062-.145-.103.02-.686 1.08-1.808 2.303-1.808m2.822 5.963c-.645.81-1.225 1.019-1.91 1.019-2.218 0-3.442-1.788-3.442-3.886 0-.52.02-.561.56-.561h3.837c.87 0 1.16-.02 1.223-.146.042-.083.084-.248.084-.54 0-1.246-1.162-2.473-2.946-2.473-2.489 0-4.169 2.14-4.169 4.696 0 .914.249 1.891.87 2.702.603.79 1.66 1.37 3.008 1.37 1.08 0 2.573-.518 3.257-1.931-.02-.188-.166-.311-.372-.25" id="Fill-38"/><path d="M191.737 63.154c-.81 0-1.575-.02-2.365-.061-.123.083-.165.351-.04.497l.518.042c.52.04.892.187 1.037.436.353.623.395 3.014.395 4.302v2.39c0 3.157-1.142 5.526-4.15 5.526-3.172 0-4.21-2.202-4.21-5.547v-4.49c0-2.16.041-2.514 1.245-2.617l.498-.042c.123-.083.082-.436-.042-.497-1.016.04-1.7.06-2.552.06-.829 0-1.535-.02-2.572-.06-.124.06-.166.414-.041.497l.52.042c1.202.103 1.243.458 1.243 2.617v4.905c0 2.473.519 3.99 1.619 4.904 1.015.872 2.447 1.144 3.878 1.144 1.534 0 3.07-.542 3.962-1.518 1.162-1.247 1.452-3.16 1.452-4.966V68.37c0-1.164 0-3.554.29-4.24.125-.27.52-.457 1.037-.498l.498-.042c.104-.124.125-.394-.042-.497a35.72 35.72 0 0 1-2.178.06" id="Fill-39"/><path d="M203.376 76.349c-.747-.103-.788-.311-.788-1.808v-3.574c0-1.392-.705-2.577-2.427-2.577-1.058 0-2.032.52-2.904 1.06-.145 0-.228-.103-.228-.228 0-.188 0-.499.042-.977a.243.243 0 0 0-.228-.145c-.416.312-1.597.851-2.074 1.017-.105.062-.105.292-.022.375l.187.125c.56.373.56.477.56 1.288v3.636c0 1.497-.02 1.705-.788 1.808l-.435.062c-.145.103-.105.457.04.52.58-.042 1.205-.063 1.95-.063a25.5 25.5 0 0 1 1.888.062c.146-.062.187-.416.042-.519l-.374-.062c-.746-.125-.788-.311-.788-1.808v-3.18c0-.602.042-.892.312-1.246.29-.395.975-.728 1.762-.728 1.41 0 1.95.874 1.95 2.058v3.096c0 1.497-.02 1.683-.789 1.808l-.393.062c-.145.103-.105.457.04.52a25.765 25.765 0 0 1 1.93-.063c.725 0 1.328.021 1.95.062.145-.062.187-.416.042-.519l-.457-.062z" id="Fill-40"/><path d="M208.709 76.349c-.747-.103-.788-.311-.788-1.808V70.8c0-.853.04-1.85.083-2.576-.02-.083-.105-.125-.208-.125-.477.312-1.66.851-2.137 1.017-.103.062-.103.292-.02.375l.187.125c.56.373.56.477.56 1.288v3.636c0 1.497-.022 1.705-.79 1.808l-.434.062c-.145.103-.103.457.042.52.58-.042 1.202-.063 1.95-.063.725 0 1.327.021 1.948.062.146-.062.187-.416.042-.519l-.435-.062z" id="Fill-41"/><path d="M207.008 66.063c.58 0 1.1-.333 1.1-1.081 0-.581-.415-1.08-1.038-1.08-.622 0-1.12.436-1.12 1.122 0 .561.415 1.04 1.058 1.04" id="Fill-42"/><path d="M217.318 68.681c-.395 0-.913-.02-1.557-.062-.145.082-.165.373-.04.518l.477.063c.248.042.373.125.373.312 0 .125-.083.561-.373 1.288l-1.183 3.055c-.166.436-.311.728-.394.79-.063-.062-.145-.25-.332-.665a46.88 46.88 0 0 1-1.556-3.97c-.207-.623-.187-.726.457-.83l.248-.043c.146-.103.125-.436-.02-.518a26.21 26.21 0 0 1-3.63 0c-.167.062-.187.353-.062.518l.415.063c.746.105.933.77 1.245 1.539l1.742 4.218c.31.768.622 1.578.788 2.16.062.063.167.084.27.084.082 0 .165-.02.207-.083.27-.707.477-1.185.685-1.705.332-.852 1.617-3.864 1.908-4.425.602-1.163.787-1.704 1.514-1.808l.31-.043c.125-.123.105-.436-.041-.518-.58.042-.933.062-1.451.062" id="Fill-43"/><path d="M223.189 69.014c1.204 0 1.597.727 1.597 1.308 0 .27-.062.355-.125.395-.165.125-.622.208-2.157.208h-1.472c-.145 0-.145-.062-.145-.103.02-.686 1.079-1.808 2.302-1.808m2.822 5.963c-.644.81-1.225 1.019-1.91 1.019-2.218 0-3.442-1.788-3.442-3.886 0-.52.02-.561.56-.561h3.837c.87 0 1.16-.02 1.223-.146.042-.083.084-.248.084-.54 0-1.246-1.162-2.473-2.946-2.473-2.488 0-4.168 2.14-4.168 4.696 0 .914.248 1.891.87 2.702.602.79 1.66 1.37 3.008 1.37 1.079 0 2.572-.518 3.257-1.931-.02-.188-.167-.311-.373-.25" id="Fill-44"/><path d="M232.65 68.39c-.768 0-1.556.644-2.283 1.247-.04-.02-.062-.083-.062-.187v-1.205c0-.083-.06-.125-.165-.146-.518.313-1.618.852-2.095 1.018-.105.062-.105.292-.02.375l.185.125c.562.373.562.476.562 1.287v3.637c0 1.497-.022 1.683-.79 1.808l-.393.062c-.145.103-.104.456.04.519a25.84 25.84 0 0 1 1.909-.063c.726 0 1.328.022 2.302.063.145-.063.187-.416.042-.519l-.746-.062c-.789-.063-.831-.311-.831-1.808v-2.826c0-.706.062-1.31.27-1.6.167-.23.415-.415.747-.415.29 0 .602.125.913.331.145.084.25.145.457.145a.92.92 0 0 0 .892-.955c0-.498-.417-.83-.935-.83" id="Fill-45"/><path d="M237.587 71.985c-.725-.416-1.597-.873-1.597-1.725 0-.748.518-1.267 1.327-1.267.85 0 1.473.603 1.825 1.517.105.125.415.083.5-.062 0-.561-.147-1.226-.333-1.683-.187-.168-.955-.375-1.827-.375-1.575 0-2.82.853-2.82 2.369 0 1.143.85 1.87 2.053 2.556.767.436 1.597.956 1.597 1.911 0 .894-.642 1.331-1.39 1.331-1.18 0-1.845-.998-2.197-2.14-.103-.125-.373-.105-.478.02-.042.686.083 1.703.25 2.099.518.415 1.245.623 2.218.623 1.536 0 2.987-.79 2.987-2.369 0-1.475-1.015-2.181-2.115-2.805" id="Fill-46"/><path d="M244.682 76.349c-.747-.103-.788-.311-.788-1.808V70.8c0-.853.04-1.85.083-2.576-.02-.083-.104-.125-.207-.125-.478.312-1.66.851-2.137 1.017-.103.062-.103.292-.02.375l.186.125c.56.373.56.477.56 1.288v3.636c0 1.497-.021 1.705-.789 1.808l-.435.062c-.145.103-.103.457.042.52.58-.042 1.203-.063 1.95-.063.725 0 1.327.021 1.948.062.147-.062.187-.416.042-.519l-.435-.062z" id="Fill-47"/><path d="M242.981 66.063c.58 0 1.1-.333 1.1-1.081 0-.581-.415-1.08-1.037-1.08-.623 0-1.12.436-1.12 1.122 0 .561.415 1.04 1.057 1.04" id="Fill-48"/><path d="M249.391 69.554h2.343c.188-.125.23-.686-.02-.873h-2.302c-.353 0-.373-.02-.373-.394v-.936c-.083-.146-.332-.146-.435-.103-.21.415-.602.976-.872 1.225-.208.187-.727.458-1.328.645-.082.125-.062.353.063.436h.58c.415 0 .437.042.437.603v4.758c0 1.246.373 2.244 2.156 2.244 1.057 0 1.804-.52 2.179-.956.04-.125-.042-.353-.208-.353-.062 0-.332.228-.52.29a1.575 1.575 0 0 1-.56.105c-1.367 0-1.512-1.101-1.512-2.306v-3.887c0-.436.02-.498.372-.498" id="Fill-49"/><path d="M261.401 68.619c-.58.042-1.057.062-1.575.062-.54 0-1.162-.02-1.827-.062-.165.062-.187.415-.042.518l.644.105c.373.063.498.208.498.353 0 .23-.27.997-.725 2.079l-.707 1.64c-.373.852-.705 1.497-.767 1.54-.083-.043-.476-1.144-.601-1.477l-.664-1.911c-.125-.353-.601-1.704-.601-1.954 0-.145.165-.207.455-.27l.52-.105c.145-.103.125-.456-.042-.518a28.182 28.182 0 0 1-3.775 0c-.166.062-.187.415-.063.518l.518.105c.727.145.872.644 1.225 1.62l1.617 4.448c.27.769.353 1.019.353 1.433 0 .292-.145.728-.207.894-.188.498-.601 1.372-1.203 2.306a.75.75 0 0 1-.685.375h-.393c-.457 0-.83.269-.83.831 0 .52.31.893.913.893.477 0 .975-.188 1.327-.977a305.198 305.198 0 0 1 3.402-7.273l1.16-2.389c.707-1.475 1.08-2.078 1.765-2.203l.352-.063c.146-.123.124-.436-.042-.518" id="Fill-50"/><path id="Fill-51" d="M35.124 16.185H15.401v57.841h4.387V20.58h14.284z"/><path id="Fill-52" d="M38.766.973H.122v73.054h4.385V5.367h33.207z"/><path d="M58.705 32.158v-7.986c0-4.404-3.576-7.986-7.972-7.986H38.445l-1.052 4.393h13.34a3.595 3.595 0 0 1 3.586 3.593l-.014 7.986h4.4z" id="Fill-53"/><path d="M61.863 24.171v11.152h-21.93c-4.396 0-7.972 3.582-7.972 7.984V58.48c0 4.405 3.576 7.988 7.972 7.988h31.21l-1.051-4.395H39.933a3.594 3.594 0 0 1-3.586-3.593V43.307a3.593 3.593 0 0 1 3.586-3.59h26.316V24.17c0-8.57-6.96-15.543-15.516-15.543H7.76v65.398h4.385V13.021h38.587c6.138 0 11.13 5.003 11.13 11.15" id="Fill-54"/><path d="M39.933 69.632c-6.137 0-11.13-5.002-11.13-11.151V43.308c0-6.15 4.993-11.15 11.13-11.15h11.143v-4.395H39.933c-8.556 0-15.516 6.973-15.516 15.545V58.48c0 8.573 6.96 15.544 15.516 15.544h33.02L71.9 69.632H39.933z" id="Fill-55"/><path d="M71.25 47.37v-4.394H41.775a2.194 2.194 0 0 0-2.193 2.196v11.54c0 1.214.982 2.197 2.193 2.197h27.558l-1.052-4.394H43.97V47.37h27.28z" id="Fill-56"/><path d="M50.733.973h-8.647l-1.053 4.394h9.7c10.35 0 18.77 8.436 18.77 18.804V47.37h4.387v-23.2C73.89 11.38 63.502.973 50.733.973" id="Fill-57"/></g></g></g></g></svg>