<?xml version="1.0" encoding="utf-8"?>
<!-- Generator: Adobe Illustrator 24.2.3, SVG Export Plug-In . SVG Version: 6.00 Build 0)  -->
<svg version="1.1" id="Layer_1" xmlns="http://www.w3.org/2000/svg" xmlns:xlink="http://www.w3.org/1999/xlink" x="0px" y="0px"
	 viewBox="0 0 376.5 124.1" style="enable-background:new 0 0 376.5 124.1;" xml:space="preserve">
<style type="text/css">
	.st0{fill:#415365;}
</style>
<g>
	<g>
		<path class="st0" d="M18.9,86.5c1.3,17.9,13.9,21.5,20.2,21.5c10.7,0,19.9-8.4,19.9-19.1c0-13.2-11.3-16.3-26.7-22
			C23,63.8,2.1,56.9,2.1,34.4C1.9,12.1,21,0,39.8,0c15.3,0,34.6,8.4,36,33H57c-1.3-6.5-4.2-16.8-17.9-16.8C29.4,16.2,21,22.8,21,33
			c0,11.6,8.9,14.5,28.1,21.7C64,60.9,77.9,68.5,77.9,87.9s-13.1,36.2-38.6,36.2c-23.8,0-39-14.5-39.3-37.7H18.9z"/>
	</g>
	<path class="st0" d="M149.5,24.4l-20.2,53.8H170L149.5,24.4z M113.1,121.8H92.4L141.5,2.3h17.3l48.3,119.6h-20.7l-11.3-28.3h-51.1
		L113.1,121.8z"/>
	<path class="st0" d="M336.6,78.9l-0.2,43H354v-43H336.6z M268,78.9l16.9,43h12.4l16.9-43h-16.5l-6.3,16l-6.4-16H268z M228,78.9v43
		h17.8l-0.2-43H228z M269.8,41.4L254.1,2.3H228v39.1h17.4L245.3,21l8,20.4H269.8z M354,41.4V2.3h-26l-15.5,39.1h16.4l8-20.4
		l-0.1,20.4C336.8,41.4,354,41.4,354,41.4z"/>
	<path class="st0" d="M216.6,53.5l-3.5,8.9h7L216.6,53.5z M210.4,68.9h-2.1l7.4-17.7h1.9l7.3,17.7h-2.1l-2.1-5h-8.2L210.4,68.9z"/>
	<polygon class="st0" points="228.9,53 224.6,53 224.6,51.3 235.3,51.3 235.3,53 230.9,53 230.9,68.9 228.9,68.9 	"/>
	<polygon class="st0" points="247,53 242.6,53 242.6,51.3 253.3,51.3 253.3,53 249,53 249,68.9 247,68.9 	"/>
	<polygon class="st0" points="256.5,68.9 256.5,51.3 258.4,51.3 258.4,59.1 266.9,59.1 266.9,51.3 268.9,51.3 268.9,68.9 
		266.9,68.9 266.9,60.9 258.4,60.9 258.4,68.9 	"/>
	<polygon class="st0" points="273.6,51.3 283.4,51.3 283.4,53 275.6,53 275.6,59.2 283.4,59.2 283.4,60.9 275.6,60.9 275.6,67.2 
		283.4,67.2 283.4,68.9 273.6,68.9 	"/>
	<polygon class="st0" points="295.8,68.9 295.8,51.3 298.5,51.3 305.1,66.1 311.6,51.3 314.3,51.3 314.3,68.9 312.5,68.9 
		312.5,53.2 305.7,68.9 304.4,68.9 297.5,53.2 297.6,68.9 	"/>
	<path class="st0" d="M325.7,53.5l-3.5,8.9h7L325.7,53.5z M319.6,68.9h-2.1l7.4-17.7h1.9l7.3,17.7h-2.1l-2-5h-8.2L319.6,68.9z"/>
	<g>
		<path class="st0" d="M337,51.3h4.6c2.8,0,4.1,0.3,5,0.9c1.4,0.9,2.4,2.7,2.4,4.7c0,1.2-0.3,2.5-1,3.5c-1,1.4-2.3,1.8-3.9,1.9
			l4.4,6.6h-2.1l-5-7.7h0.6c1.2,0,3,0,3.9-0.9c0.9-0.9,1.3-2,1.3-3.2c0-1.3-0.6-2.7-1.7-3.4c-0.9-0.6-2-0.6-3.6-0.6H339v15.9h-2
			V51.3z"/>
	</g>
	<polygon class="st0" points="355.1,53 350.8,53 350.8,51.3 361.5,51.3 361.5,53 357.1,53 357.1,68.9 355.1,68.9 	"/>
	<polygon class="st0" points="374.3,51.3 369.8,60.8 365.3,51.3 363.1,51.3 368.8,62.7 368.8,68.9 370.8,68.9 370.8,62.7 
		376.5,51.3 	"/>
</g>
</svg>
